<?xml version="1.0" encoding="UTF-8"?>
<svg width="18px" height="11px" viewBox="0 0 18 11" version="1.1" xmlns="http://www.w3.org/2000/svg" xmlns:xlink="http://www.w3.org/1999/xlink">
    <!-- Generator: sketchtool 61.2 (101010) - https://sketch.com -->
    <title>7865B816-B6A9-4D4E-9F6C-527E23615B2A@2x</title>
    <desc>Created with sketchtool.</desc>
    <g id="Page-1" stroke="none" stroke-width="1" fill="none" fill-rule="evenodd">
        <g id="10" transform="translate(-302.000000, -533.000000)" fill="#979797">
            <g id="Group-11" transform="translate(20.000000, 484.000000)">
                <g id="eye_on" transform="translate(282.000000, 49.000000)">
                    <path d="M9,2.27373675e-13 C5.56090825,2.27373675e-13 2.44216017,1.86519623 0.140840749,4.89477132 C-0.0469469162,5.14297748 -0.0469469162,5.48973607 0.140840749,5.73794222 C2.44216017,8.77116741 5.56090825,10.6363636 9,10.6363636 C12.4390917,10.6363636 15.5578398,8.77116741 17.8591593,5.74159231 C18.0469469,5.49338616 18.0469469,5.14662757 17.8591593,4.89842141 C15.5578398,1.86519623 12.4390917,2.27373675e-13 9,2.27373675e-13 Z M9.24670144,9.06317464 C6.96379257,9.20552817 5.0785517,7.34033194 5.22215403,5.07362576 C5.33998159,3.20477943 6.86805769,1.68999189 8.75329856,1.57318899 C11.0362074,1.43083547 12.9214483,3.2960317 12.777846,5.56273788 C12.6563363,7.42793411 11.1282602,8.94272166 9.24670144,9.06317464 Z M9.132556,7.33303176 C7.9027309,7.40968366 6.88646824,6.40590878 6.96747469,5.18677856 C7.03007057,4.17935359 7.85486346,3.36538342 8.87112611,3.29968179 C10.1009512,3.22302989 11.1172139,4.22680477 11.0362074,5.44593498 C10.9699294,6.45701005 10.1451365,7.27098022 9.132556,7.33303176 Z" id="eye-on"></path>
                </g>
            </g>
        </g>
    </g>
</svg>